<?xml version="1.0" encoding="UTF-8"?>
<svg id="Layer_2" data-name="Layer 2" xmlns="http://www.w3.org/2000/svg" viewBox="0 0 216 30.84">
  <defs>
    <style>
      .cls-1 {
        fill: var(--logo-secondary-main, #0c2032);
      }

      .cls-2 {
        fill: var(--logo-primary, #6d5fcf);
      }
    </style>
  </defs>
  <g id="Layer_1-2" data-name="Layer 1">
    <g>
      <polygon class="cls-1" points="60.8 24.96 58.44 24.96 58.44 8.89 52.83 24.96 50.31 24.96 44.7 8.89 44.7 24.96 42.35 24.96 42.35 5.77 45.94 5.77 51.59 21.95 57.23 5.77 60.8 5.77 60.8 24.96"/>
      <path class="cls-1" d="M74.47,16.36c-.58-2.32-2.52-3.87-4.59-3.87-1.96,0-4.04,1.44-4.65,3.87h9.24ZM76.74,20.54c-1,3.04-3.43,4.76-6.72,4.76-4.09,0-7.3-3.26-7.3-7.44s3.21-7.49,7.16-7.49c3.68,0,7.22,3.04,7.19,8.1h-11.98c.31,2.96,2.57,4.7,4.92,4.7,2.02,0,3.46-.97,4.23-2.63h2.49Z"/>
      <path class="cls-1" d="M85.76,12.55c-2.68,0-4.79,2.38-4.79,5.34s2.1,5.28,4.79,5.28,4.84-2.38,4.84-5.28-2.21-5.34-4.84-5.34M92.95,24.96h-2.27v-2.3c-1,1.46-2.82,2.66-4.92,2.66-4.09,0-7.14-3.35-7.14-7.47s3.04-7.5,7.14-7.5c2.04,0,3.82,1.14,4.84,2.52V4.39h2.35v20.58Z"/>
      <path class="cls-1" d="M106.47,16.36c-.58-2.32-2.52-3.87-4.59-3.87-1.96,0-4.04,1.44-4.65,3.87h9.24ZM108.74,20.54c-1,3.04-3.43,4.76-6.72,4.76-4.1,0-7.3-3.26-7.3-7.44s3.21-7.49,7.16-7.49c3.68,0,7.22,3.04,7.19,8.1h-11.98c.3,2.96,2.57,4.7,4.92,4.7,2.02,0,3.46-.97,4.23-2.63h2.49Z"/>
      <path class="cls-1" d="M118.53,7.19l-3.87,10.15h7.77l-3.9-10.15ZM114.27,18.37l-2.55,6.61h-1.1l7.36-19.2h1.13l7.36,19.2h-1.11l-2.55-6.61h-8.54Z"/>
      <path class="cls-1" d="M140.55,24.98h-1.02v-8.6c0-3.13-1.69-5.01-4.81-5.01-2.88,0-5.12,2.13-5.12,5.01v8.6h-1.02v-14.25h1.02v2.41c1.02-1.69,2.88-2.76,5.14-2.76,3.65,0,5.81,2.29,5.81,6v8.6Z"/>
      <path class="cls-1" d="M154.17,16.54c-1.11,1.02-3.18,1.22-5.15,1.38-3.65.36-5.06,1.33-5.06,3.29,0,2.35,2.66,2.99,4.07,2.99,3.07,0,6.14-1.38,6.14-4.4v-3.26ZM154.55,24.98c-.25-.53-.39-1.19-.39-2.08v-.28c-1.13,1.6-3.32,2.6-6.14,2.6-2.49,0-5.17-1.24-5.17-3.98,0-3.24,3.01-3.98,6.05-4.26,3.15-.31,5.26-.64,5.26-2.38,0-2.63-2.49-3.24-4.59-3.24-2.6,0-4.32,1.08-4.92,3.02h-1.05c.63-2.54,2.76-4.01,5.97-4.01,3.57,0,5.61,1.55,5.61,4.23v8.05c0,.72.19,1.77.42,2.32h-1.05Z"/>
      <rect class="cls-1" x="157.99" y="4.48" width="1.02" height="20.58"/>
      <path class="cls-1" d="M166.78,27.05c-1.02,2.71-3.01,3.73-5.53,3.26v-.97c2.21.33,3.71-.36,4.57-2.66l.66-1.74-5.37-14.22h1.11l4.78,12.78,4.84-12.78h1.08l-6.14,16.32Z"/>
      <path class="cls-1" d="M175.99,20.05c0,2.43,1.11,4.09,3.82,3.98v.94c-3.07.28-4.87-1.74-4.87-4.93V7.69h1.05v3.04h3.82v1.02h-3.82v8.3Z"/>
      <rect class="cls-1" x="182.32" y="10.73" width="1.02" height="14.25"/>
      <path class="cls-1" d="M192.61,25.31c-3.93,0-7.11-3.32-7.11-7.41s3.18-7.52,7.11-7.52c3.15,0,5.61,1.88,6.58,4.76h-1.11c-.91-2.27-2.93-3.71-5.48-3.71-3.35,0-6.09,2.9-6.09,6.47s2.74,6.39,6.09,6.39c2.62,0,4.64-1.44,5.5-3.73h1.08c-.94,2.88-3.43,4.76-6.58,4.76"/>
      <path class="cls-1" d="M211.95,23.65c-1.02,1.05-2.71,1.66-4.7,1.66-3.6,0-6.14-1.58-6.61-4.48h1.02c.5,2.3,2.54,3.52,5.56,3.52,1.71,0,3.16-.55,3.98-1.41.5-.53.75-1.22.69-1.97-.06-1.74-1.46-2.62-4.95-3.12-2.46-.36-5.5-.77-5.56-3.6,0-1.93,1.83-3.87,5.4-3.87,3.15,0,5.23,1.41,5.84,3.98h-1.05c-.58-1.91-2.21-3.01-4.76-3.01s-4.4,1.24-4.37,2.9c.03,1.63,1.52,2.16,4.68,2.6,2.96.44,5.7,1.22,5.83,4.09.03.99-.3,1.99-.99,2.71"/>
      <path class="cls-1" d="M182.04,8.14c0-.44.36-.8.8-.8s.8.36.8.8-.36.8-.8.8-.8-.36-.8-.8"/>
      <path class="cls-1" d="M214.7,11.78c.11,0,.23-.06.23-.23s-.09-.23-.23-.23h-.43v.45h.43ZM215.21,12.56h-.32l-.27-.52h-.36v.51h-.28v-1.48h.71c.31,0,.51.19.51.48,0,.21-.12.38-.31.45l.32.55ZM214.52,10.65c-.65,0-1.19.54-1.19,1.2s.53,1.21,1.19,1.21,1.18-.54,1.18-1.21-.53-1.2-1.18-1.2M214.52,13.33c-.82,0-1.48-.66-1.48-1.48s.66-1.47,1.48-1.47,1.48.66,1.48,1.47-.66,1.48-1.48,1.48"/>
      <rect class="cls-2" x="95.65" y="5.74" width="12.61" height="2.32"/>
      <path class="cls-1" d="M4.94,9.66L0,12.51v5.7l4.94,2.85,4.94-2.85v-5.7l-4.94-2.85ZM4.94,10.22l4.45,2.57v5.14l-4.45,2.57L.48,17.93v-5.14l4.45-2.57Z"/>
      <path class="cls-1" d="M10.6,0l-4.94,2.85v5.7l4.94,2.85,4.94-2.85V2.85L10.6,0ZM10.6.56l4.45,2.57v5.14l-4.45,2.57-4.45-2.57V3.13L10.6.56Z"/>
      <path class="cls-1" d="M16.14,9.66l-4.94,2.85v5.7l4.94,2.85,4.94-2.85v-5.7l-4.94-2.85ZM16.14,10.22l4.45,2.57v5.14l-4.45,2.57-4.45-2.57v-5.14l4.45-2.57Z"/>
      <path class="cls-1" d="M27.23,9.66l-4.94,2.85v5.7l4.94,2.85,4.94-2.85v-5.7l-4.94-2.85ZM27.23,10.22l4.45,2.57v5.14l-4.45,2.57-4.45-2.57v-5.14l4.45-2.57Z"/>
      <polygon class="cls-2" points="26.75 8.55 26.75 2.85 21.81 0 16.88 2.85 16.88 8.55 21.81 11.4 26.75 8.55"/>
      <path class="cls-1" d="M10.6,19.45l-4.94,2.85v5.7l4.94,2.85,4.94-2.85v-5.7l-4.94-2.85ZM10.6,20l4.45,2.57v5.14l-4.45,2.57-4.45-2.57v-5.14l4.45-2.57Z"/>
      <path class="cls-1" d="M21.81,19.45l-4.94,2.85v5.7l4.94,2.85,4.94-2.85v-5.7l-4.94-2.85ZM21.81,20l4.45,2.57v5.14l-4.45,2.57-4.45-2.57v-5.14l4.45-2.57Z"/>
    </g>
  </g>
</svg>
